<svg xmlns="http://www.w3.org/2000/svg" width="149.886" height="24.391" viewBox="0 0 149.886 24.391">
  <g id="Grupo_2446" data-name="Grupo 2446" transform="translate(-477.5 -557.806)">
    <path id="Caminho_827" data-name="Caminho 827" d="M25.532,21.058a.749.749,0,0,0-.6-.51L17,19.4l-3.545-7.183a.749.749,0,0,0-.672-.418h0a.749.749,0,0,0-.672.418L8.568,19.4.641,20.548a.749.749,0,0,0-.415,1.278l5.735,5.591L4.608,35.311a.749.749,0,0,0,1.087.79l7.09-3.727L19.874,36.1a.749.749,0,0,0,1.087-.79l-1.354-7.894,5.736-5.591A.749.749,0,0,0,25.532,21.058Z" transform="translate(477.5 546.01)" fill="#ffb300"/>
    <path id="Caminho_828" data-name="Caminho 828" d="M25.532,21.058a.749.749,0,0,0-.6-.51L17,19.4l-3.545-7.183a.749.749,0,0,0-.672-.418h0a.749.749,0,0,0-.672.418L8.568,19.4.641,20.548a.749.749,0,0,0-.415,1.278l5.735,5.591L4.608,35.311a.749.749,0,0,0,1.087.79l7.09-3.727L19.874,36.1a.749.749,0,0,0,1.087-.79l-1.354-7.894,5.736-5.591A.749.749,0,0,0,25.532,21.058Z" transform="translate(508.579 546.01)" fill="#ffb300"/>
    <path id="Caminho_829" data-name="Caminho 829" d="M25.532,21.058a.749.749,0,0,0-.6-.51L17,19.4l-3.545-7.183a.749.749,0,0,0-.672-.418h0a.749.749,0,0,0-.672.418L8.568,19.4.641,20.548a.749.749,0,0,0-.415,1.278l5.735,5.591L4.608,35.311a.749.749,0,0,0,1.087.79l7.09-3.727L19.874,36.1a.749.749,0,0,0,1.087-.79l-1.354-7.894,5.736-5.591A.749.749,0,0,0,25.532,21.058Z" transform="translate(539.659 546.01)" fill="#ffb300"/>
    <path id="Caminho_830" data-name="Caminho 830" d="M25.532,21.058a.749.749,0,0,0-.6-.51L17,19.4l-3.545-7.183a.749.749,0,0,0-.672-.418h0a.749.749,0,0,0-.672.418L8.568,19.4.641,20.548a.749.749,0,0,0-.415,1.278l5.735,5.591L4.608,35.311a.749.749,0,0,0,1.087.79l7.09-3.727L19.874,36.1a.749.749,0,0,0,1.087-.79l-1.354-7.894,5.736-5.591A.749.749,0,0,0,25.532,21.058Z" transform="translate(570.738 546.01)" fill="#ffb300"/>
    <path id="Caminho_831" data-name="Caminho 831" d="M25.532,21.058a.749.749,0,0,0-.6-.51L17,19.4l-3.545-7.183a.749.749,0,0,0-.672-.418h0a.749.749,0,0,0-.672.418L8.568,19.4.641,20.548a.749.749,0,0,0-.415,1.278l5.735,5.591L4.608,35.311a.749.749,0,0,0,1.087.79l7.09-3.727L19.874,36.1a.749.749,0,0,0,1.087-.79l-1.354-7.894,5.736-5.591A.749.749,0,0,0,25.532,21.058Z" transform="translate(601.817 546.01)" fill="#84848d"/>
  </g>
</svg>
